Coordinates
version=1
nRows=20
nColumns=34
inDegrees=yes

Units are S.I. units (second, meters, Newtons, ...)
If the header above contains a line with 'inDegrees', this indicates whether rotational values are in degrees (yes) or radians (no).

endheader
time	pelvis_tilt	pelvis_list	pelvis_rotation	pelvis_tx	pelvis_ty	pelvis_tz	hip_flexion_r	hip_adduction_r	hip_rotation_r	knee_angle_r	ankle_angle_r	subtalar_angle_r	mtp_angle_r	hip_flexion_l	hip_adduction_l	hip_rotation_l	knee_angle_l	ankle_angle_l	subtalar_angle_l	mtp_angle_l	lumbar_extension	lumbar_bending	lumbar_rotation	arm_flex_r	arm_add_r	arm_rot_r	elbow_flex_r	pro_sup_r	arm_flex_l	arm_add_l	arm_rot_l	elbow_flex_l	pro_sup_l
      3.93333330	    -12.46131105	     -3.02364339	      4.64162732	      0.09903737	      0.89898772	     -0.44110640	     40.30261760	    -15.46989938	    -17.80915873	     60.63345817	     20.86019118	    -27.63871923	      0.00000000	     41.50457817	    -18.38105519	     -8.53916009	     58.15591947	     18.80254678	    -16.05284672	      0.00000000	    -13.87734762	      2.90644480	      0.75394703	     37.89863341	    -15.86549012	     31.99239721	    116.66595565	     91.27739112	     31.85496265	    -12.78579951	     32.05357737	    122.40402590	     81.06513539
      3.95000000	    -12.86194682	     -2.99844437	      4.60232129	      0.09488998	      0.88543469	     -0.44005329	     42.63384735	    -16.25090264	    -17.42986498	     63.97334669	     22.97793572	    -26.17535512	      0.00000000	     43.82174662	    -18.87778855	     -8.02681664	     61.22873254	     20.09355668	    -15.32570417	      0.00000000	    -15.02535791	      2.65812041	      0.87893229	     40.15143294	    -16.06608238	     31.96224726	    116.87496921	     92.51069784	     34.64781546	    -12.87545716	     32.84981493	    122.00678169	     82.19315061
      3.96666670	    -13.16658722	     -2.87808686	      4.82013043	      0.08788153	      0.86965512	     -0.43971598	     45.12195158	    -17.23880787	    -16.97552330	     67.63447350	     24.51630889	    -25.52442396	      0.00000000	     46.46412262	    -19.07846243	     -7.33156223	     64.78782002	     21.42970333	    -15.07647596	      0.00000000	    -16.22026993	      2.38110180	      0.93582723	     42.54976484	    -16.43393965	     31.70531656	    116.93217265	     94.66629208	     37.50421084	    -12.88454658	     33.76296176	    121.07942384	     83.99486634
      3.98333330	    -13.59528564	     -2.71729376	      4.85643091	      0.08317216	      0.85549874	     -0.44130729	     47.82522223	    -18.20654205	    -16.30339118	     71.16633103	     24.73793141	    -25.95449658	      0.00000000	     48.98869391	    -19.04923455	     -6.57812398	     67.90250087	     22.84723824	    -14.84706283	      0.00000000	    -17.39181039	      2.22828179	      0.74777041	     44.88604109	    -16.39742747	     32.24946568	    117.17108642	     95.01789881	     39.76525994	    -13.05322173	     34.23142826	    120.67169914	     84.25993927
      4.00000000	    -13.74341439	     -2.62206759	      4.99522691	      0.07888550	      0.84234618	     -0.44077494	     50.08234765	    -19.06150294	    -15.70184546	     74.49599337	     25.11206184	    -26.10675927	      0.00000000	     51.26357148	    -19.05355202	     -5.62039601	     71.03152972	     23.97271159	    -14.78592070	      0.00000000	    -18.91510964	      2.11879919	      0.53177444	     47.33682336	    -16.42796392	     33.09697055	    117.29462416	     95.48769527	     42.28385340	    -13.29610671	     34.84602858	    120.11112560	     84.58855256
      4.01666670	    -13.85018502	     -2.49190523	      5.14360617	      0.07029355	      0.83205406	     -0.44109550	     52.34343947	    -19.81794051	    -15.07988149	     77.30137736	     25.31781922	    -26.28929217	      0.00000000	     53.40627734	    -18.82577424	     -4.76346340	     73.69272344	     25.01301935	    -14.57434499	      0.00000000	    -20.81330784	      1.94036115	      0.27774801	     49.94989899	    -16.57729779	     34.05454404	    117.42522804	     96.05111372	     44.90977756	    -13.48974490	     35.54535842	    119.77488448	     84.98493347
      4.03333330	    -13.67898732	     -2.55810502	      5.38368706	      0.06264113	      0.82011777	     -0.43922004	     54.12306934	    -20.22260000	    -14.48763575	     79.86840094	     26.09759433	    -25.95017558	      0.00000000	     55.26676218	    -18.75659078	     -3.58290870	     76.00270892	     25.36372191	    -14.47978145	      0.00000000	    -23.03351561	      1.88315274	      0.14979080	     52.72927618	    -16.75542278	     34.97161718	    117.49933202	     96.76197565	     47.84458880	    -13.52894507	     36.26880263	    119.37656507	     85.50042748
      4.05000000	    -13.75121017	     -2.54615107	      5.38170821	      0.05734114	      0.80800376	     -0.43695492	     56.30784211	    -20.42727338	    -13.74426995	     82.46051583	     26.53117894	    -26.04293694	      0.00000000	     57.29238568	    -18.79408501	     -2.57807765	     78.41110704	     25.76294663	    -14.61421689	      0.00000000	    -25.05883414	      1.67511300	      0.08470683	     54.96772188	    -16.38523161	     34.57382589	    117.47372292	     96.93422692	     50.03880428	    -13.21424729	     35.82988377	    119.11090877	     85.61755067
      4.06666670	    -13.55880462	     -2.40504859	      5.54486964	      0.05192344	      0.79381015	     -0.43665265	     58.20937920	    -21.01500776	    -13.05623979	     85.28750592	     27.49964936	    -25.52142247	      0.00000000	     59.08049381	    -18.66408050	     -1.67847147	     80.88584435	     26.37154168	    -14.63002841	      0.00000000	    -27.50685469	      1.44803075	     -0.09409316	     57.86092951	    -16.39216019	     35.31367680	    118.05570695	    103.89549062	     53.05613692	    -13.36425248	     36.53291872	    118.89293321	     90.74403500
      4.08333330	    -13.90613902	     -2.42535166	      5.58675012	      0.04558039	      0.77388026	     -0.43594417	     60.95535488	    -21.33919178	    -12.16191056	     88.31018345	     28.27437170	    -25.87258169	      0.00000000	     62.17638665	    -18.51764405	     -0.44388962	     84.44323367	     26.80026472	    -15.18918342	      0.00000000	    -28.99849968	      1.23824653	     -0.15220969	     60.50810950	    -16.32185287	     35.83117750	    118.81436342	    104.19231168	     55.74819038	    -13.51682238	     37.05250968	    119.41147511	     91.07646648
      4.10000000	    -13.96712695	     -2.28837024	      5.57714309	      0.03930602	      0.76794956	     -0.43679720	     62.88266158	    -21.59032573	    -11.28408185	     90.41995612	     28.31022394	    -26.07565035	      0.00000000	     64.05627781	    -18.21440007	      0.25066630	     86.63640279	     26.61228987	    -15.78906312	      0.00000000	    -31.12651245	      1.09338786	     -0.26561393	     63.21072015	    -16.31002688	     36.11976679	    119.43890915	    104.67700942	     58.18484295	    -13.65352879	     37.37061929	    119.83170549	     91.59666238
      4.11666670	    -13.77768126	     -2.27097683	      5.61771811	      0.03096085	      0.75576711	     -0.43636793	     64.87452722	    -21.80249043	    -10.43609387	     92.74765856	     28.22933126	    -26.19293699	      0.00000000	     66.00839732	    -17.95621064	      1.13234921	     89.04749616	     26.33739781	    -16.74098106	      0.00000000	    -33.31604940	      1.01965265	     -0.36682547	     65.95026584	    -16.24838438	     36.23222283	    119.77357463	    105.25418095	     60.86714857	    -13.66878729	     37.81390502	    120.26768882	     92.27296470
      4.13333330	    -13.75188685	     -2.23522873	      5.68526486	      0.02397816	      0.73564877	     -0.43837737	     67.35356397	    -22.22185366	     -9.40770026	     95.58563626	     28.30700988	    -26.62746535	      0.00000000	     68.63688717	    -17.60650959	      1.99931369	     92.11190315	     26.68800797	    -17.23416730	      0.00000000	    -34.91189619	      1.00012348	     -0.64637666	     68.72439452	    -16.34395627	     36.29050528	    120.07512179	    105.92825638	     63.52312812	    -13.69600537	     38.14949271	    120.44041101	     93.11904790
      4.15000000	    -13.79888510	     -2.32028779	      5.62569326	      0.02438009	      0.71988314	     -0.43559088	     69.55775916	    -22.27616312	     -8.50086636	     98.27694943	     28.79326687	    -26.95864780	      0.00000000	     70.93682142	    -17.76762597	      2.97556300	     94.92218013	     26.80251900	    -17.33761485	      0.00000000	    -36.17171355	      0.97154220	     -0.71348651	     70.84540198	    -16.02008695	     35.78834901	    120.34896836	    106.25172889	     65.57504802	    -13.51809526	     37.97337369	    120.63659610	     93.55553351
      4.16666670	    -14.09962078	     -2.34564859	      5.57004352	      0.01921633	      0.70073629	     -0.43498011	     72.20911346	    -22.39151213	     -7.46130224	    101.16364648	     29.47390558	    -27.57242070	      0.00000000	     73.59719334	    -17.97004763	      3.94324847	     97.93224377	     27.26746320	    -17.42490001	      0.00000000	    -37.01653316	      0.90475017	     -0.81625301	     73.22461037	    -15.96854103	     36.10461303	    121.11638939	    106.98479568	     67.88259874	    -13.52701703	     38.30183983	    121.05228256	     94.52753240
      4.18333330	    -14.33234024	     -2.54716582	      5.68301212	      0.01498404	      0.68216865	     -0.43458143	     74.66988325	    -22.57140697	     -6.56929515	    103.98829261	     30.10116755	    -28.03866127	      0.00000000	     76.47464871	    -18.19610959	      5.12390584	    101.00274744	     27.93131485	    -16.83071614	      0.00000000	    -37.58752469	      0.89830816	     -0.51163031	     75.02886022	    -16.40018307	     35.48359283	    121.87196150	    112.12051211	     69.82985931	    -12.64451232	     37.77534458	    120.28513947	    101.84846319
      4.20000000	    -14.86241694	     -2.64291924	      5.71658437	      0.01611993	      0.66354809	     -0.43020332	     77.39623157	    -22.60194014	     -5.62084719	    106.92084681	     30.80465753	    -28.25298255	      0.00000000	     79.35838281	    -18.80839440	      6.10199293	    103.77822394	     28.01561016	    -16.46364016	      0.00000000	    -37.70388967	      0.77785156	     -0.58673229	     76.55004976	    -16.04865775	     35.22705999	    122.13166253	    112.21850992	     71.30301389	    -12.63298937	     37.71190904	    120.43619092	    102.07787120
      4.21666670	    -15.70309032	     -2.72874685	      5.60892908	      0.01017735	      0.64662715	     -0.43147512	     80.64395409	    -22.66030387	     -4.59322907	    109.63759400	     31.53554820	    -28.30245980	      0.00000000	     82.56739461	    -19.33086304	      6.83235510	    106.52309183	     28.87457304	    -15.58600340	      0.00000000	    -37.38350113	      0.64362604	     -0.55382076	     77.75039026	    -15.96802860	     35.29114473	    122.51097884	    112.48831323	     72.47453745	    -12.40825682	     37.66741269	    120.51716533	    102.54305975
      4.23333330	    -16.38556633	     -2.83830452	      5.36947088	      0.00577161	      0.63233688	     -0.43548344	     83.50528047	    -22.76656561	     -3.63478887	    111.88072272	     31.87181350	    -27.85174760	      0.00000000	     85.42535656	    -19.79319466	      7.38663823	    108.94570607	     29.14068029	    -14.99359906	      0.00000000	    -37.40934258	      0.66437071	     -0.46294946	     79.01922596	    -15.92006703	     35.15153085	    122.52631552	    112.77945915	     73.58915147	    -11.95616743	     37.51684345	    120.37036189	    102.98685156
      4.25000000	    -17.02241947	     -3.06401627	      5.15030609	      0.01093581	      0.61686156	     -0.43682718	     85.94486944	    -23.15313773	     -2.68831752	    114.16272165	     31.97699643	    -27.61541834	      0.00000000	     88.00774166	    -20.46374560	      8.16766771	    111.44480897	     29.67644247	    -14.21957191	      0.00000000	    -37.14377788	      0.83912797	     -0.27733756	     79.51393358	    -15.95052939	     35.16635608	    122.81905766	    113.24795472	     74.11408000	    -11.52337562	     37.49374729	    120.34621300	    103.68430482
